# xmcd
#
# Track frame offsets:
#	150
#	15547
#	31623
#	49678
#	70759
#	88789
#	109261
#	127606
#	146288
#	169594
#	191621
#	210450
#
# Disc length: 3042 seconds
#
# Revision: 0
# Processed by: cddbd v1.5.2PL0 Copyright (c) Steve Scherf et al.
# Submitted via: EZCDAudioConverter 1.6.1.1
#
DISCID=900be00c
DTITLE=Barbara Mason - Soulful Truth
DYEAR=2001
DGENRE=blues
TTITLE0=Love And Happiness
TTITLE1=From Him Woman To You
TTITLE2=Yes, I'm Ready
TTITLE3=Shackin' Up
TTITLE4=Give Me Your Love (Love Song)
TTITLE5=If Loving You Is Wrong (Then I Don't Want To Be Right)
TTITLE6=People Make The World Go Round
TTITLE7=(For) Your Precious Love
TTITLE8=Don't Ever Take Your Love Away
TTITLE9=Oh How It Hurts
TTITLE10=You Blew It
TTITLE11=The Ghetto
EXTD=
EXTT0=
EXTT1=
EXTT2=
EXTT3=
EXTT4=
EXTT5=
EXTT6=
EXTT7=
EXTT8=
EXTT9=
EXTT10=
EXTT11=
PLAYORDER=
